<?xml version="1.0" encoding="utf-8"?>
<!-- Generator: Adobe Illustrator 25.0.1, SVG Export Plug-In . SVG Version: 6.00 Build 0)  -->
<svg version="1.1" id="Слой_1" xmlns="http://www.w3.org/2000/svg" xmlns:xlink="http://www.w3.org/1999/xlink" x="0px" y="0px"
	 viewBox="0 0 66 66" style="enable-background:new 0 0 66 66;" xml:space="preserve">
<style type="text/css">
	.st0{fill:none;}
	.st1{fill:#E5E5E5;}
</style>
<rect x="33.8" y="10.8" class="st0" width="66" height="66"/>
<g>
	<path class="st1" d="M63.8,17.4L63.8,17.4c-0.1-0.2-0.1-0.3-0.2-0.4l-0.1-0.1c-0.1-0.1-0.2-0.2-0.2-0.2L33.5,2.2
		c-0.3-0.2-0.7-0.2-1,0L2.6,16.7l-0.1,0.1c-0.1,0.1-0.2,0.2-0.3,0.2c-0.1,0.1-0.2,0.2-0.2,0.3v0.1C2,17.5,2,17.6,2,17.7v29.8
		c0,0.5,0.2,0.8,0.6,1l29.8,15.3l0.2,0.1c0.2,0.1,0.3,0.1,0.5,0.1c0.2,0,0.3,0,0.5-0.1l29.9-15.3c0.4-0.2,0.6-0.6,0.6-1V17.8
		C63.9,17.6,63.9,17.5,63.8,17.4z M13.2,37.6l8.9,4.7c0.4,0.2,0.8,0.2,1.1,0c0.3-0.2,0.5-0.6,0.5-1V29.5l8,4.1v27.2L4.3,46.8V19.6
		l8.3,4.3v12.7C12.6,37,12.8,37.3,13.2,37.6z M24.3,19.1l6.1,3.2l-8,4.1l-6.2-3.1L24.3,19.1z M14.9,35.8V25l6.6,3.4v10.9L14.9,35.8z
		 M33.4,23.3c0.4-0.2,0.6-0.6,0.6-1c0-0.5-0.2-0.8-0.6-1l-8.6-4.5c-0.3-0.2-0.7-0.2-1.1,0L13.7,22l-8-4.3L32.9,4.5l27.2,13.3
		L32.9,31.7l-8-4.1L33.4,23.3z M61.6,19.6v27.2L34.1,60.9V33.7L61.6,19.6z"/>
	<path class="st1" d="M42.2,42.7c0.2,0.1,0.4,0.2,0.6,0.2c0.2,0,0.4-0.1,0.5-0.2L54,37.2c0.4-0.2,0.6-0.6,0.6-1v-6.6
		c0-0.4-0.2-0.8-0.5-1c-0.3-0.2-0.8-0.2-1.1-0.1l-10.7,5.5c-0.4,0.2-0.6,0.6-0.6,1v6.6C41.6,42.1,41.8,42.5,42.2,42.7z M43.9,35.9
		l8.4-4.3v4l-8.4,4.3V35.9z"/>
</g>
</svg>
