<?xml version="1.0" encoding="utf-8"?>
<svg version="1.1" id="Слой_1" xmlns="http://www.w3.org/2000/svg" xmlns:xlink="http://www.w3.org/1999/xlink" x="0px" y="0px"
	 viewBox="0 0 62 58" style="enable-background:new 0 0 62 58;" xml:space="preserve">
<style type="text/css">
	.st0{fill:#FFFFFF;}

</style>
<path class="st0" d="M9.2,57.8C9.2,57.8,9.2,57.8,9.2,57.8c-0.5,0-0.9-0.2-1.1-0.6l-7-10.3c-0.4-0.6-0.3-1.3,0.2-1.8l8.9-8.2
	c0,0,0.1-0.1,0.2-0.1c4.8-3.3,10.5-1.6,10.7-1.5c2.3,0.6,6.7,0.7,6.8,0.7h7.7c2.3,0,4.2,1.2,5.1,3l12-6.3c2.7-1.4,5.8-0.7,7.1,1.7
	c1.3,2.4,0.2,5.6-2.4,7L36.3,52.6c-0.1,0.1-0.2,0.1-0.3,0.1L34.8,53c-0.1,0-0.2,0-0.3,0l-19.5,0.5c-0.5,0.2-2.5,1.1-4.8,3.7
	C10,57.6,9.6,57.8,9.2,57.8z M4,46.3l5.4,8c2.7-2.6,4.9-3.3,5-3.3c0.1,0,0.2,0,0.3,0l19.5-0.5l0.8-0.2l20.9-11.2
	c1.3-0.7,1.9-2.2,1.3-3.3c-0.6-1-2-1.3-3.4-0.6L41,41.9c-0.5,2.4-2.7,4.1-5.5,4.1H24.9c-0.7,0-1.4-0.6-1.4-1.4s0.6-1.4,1.4-1.4h10.7
	c1.5,0,2.8-1,2.8-2.3c0,0,0,0,0,0c0-1.2-1.3-2.3-2.8-2.3h-7.7c-0.2,0-4.9-0.2-7.5-0.9c-0.1,0-4.6-1.4-8.3,1.1L4,46.3z"/>
<path class="st0" d="M28.8,38.7c-0.1,0-0.2,0-0.3,0c-0.7-0.2-1.2-0.9-1-1.6c1.8-8.4-1.7-16.7-3.9-20.9c-0.4-0.7-0.1-1.5,0.6-1.8
	c0.7-0.4,1.5-0.1,1.8,0.6c2.4,4.5,6.2,13.4,4.2,22.7C30,38.3,29.4,38.7,28.8,38.7z"/>
<path class="st0" d="M23.2,17.3c-0.6,0-1.3-0.1-1.9-0.4c-2.6-0.9-4.9-3.4-5.8-6.3c-1.8-5.4-0.6-9.4-0.5-9.5c0.2-0.7,0.9-1.1,1.6-0.9
	c0.2,0,4.4,1.2,8,4.9c2.3,2.3,3,5.7,2.7,8c-0.2,1.6-0.9,2.9-2,3.5C24.7,17.1,24,17.3,23.2,17.3z M17.3,3.4c-0.1,1.4-0.2,3.7,0.7,6.4
	c0.7,2.3,2.7,4,4.2,4.6c0.4,0.1,1.2,0.3,1.7,0c0.3-0.2,0.6-0.8,0.7-1.6c0.2-1.6-0.3-4.1-2-5.8C20.8,5.1,18.6,4,17.3,3.4z"/>
<path class="st0" d="M43,28c-0.6,0-1.1,0-1.5-0.1c-3.2-0.5-6.1-2.6-7.9-5.8c-1.8-3-2.2-6.7-1.1-9.8c0.7-2.2,2.5-5.2,7-7
	c5.9-2.4,19.9-0.6,20.5-0.6c0.4,0.1,0.8,0.3,1,0.6c0.2,0.3,0.3,0.8,0.1,1.2c-0.2,0.5-4.6,13.3-9.7,17.9l-0.9-1l0.9,1
	C48.2,27.2,45.3,28,43,28z M48.9,6.8c-3.2,0-6.4,0.3-8.4,1.1c-2.8,1.1-4.7,3-5.5,5.3c-0.8,2.4-0.5,5.2,0.9,7.5
	c1.4,2.4,3.7,4.1,6,4.4c2.5,0.4,5-0.5,7.6-2.8c3.6-3.2,7-11.6,8.3-15.1C55.9,7,52.4,6.8,48.9,6.8z"/>
<path class="st0" d="M45.3,21.9c-0.1,0-0.2,0-0.3-0.1l-5.3-2.7c-0.3-0.2-0.5-0.6-0.3-0.9c0.2-0.3,0.6-0.5,0.9-0.3l5.3,2.7
	c0.3,0.2,0.5,0.6,0.3,0.9C45.8,21.8,45.5,21.9,45.3,21.9z"/>
<path class="st0" d="M44.4,15.9C44.4,15.9,44.3,15.9,44.4,15.9c-0.4,0-0.7-0.3-0.7-0.7l0.1-4.1c0-0.4,0.3-0.7,0.7-0.7
	c0.4,0,0.7,0.3,0.7,0.7L45,15.3C45,15.7,44.7,15.9,44.4,15.9z"/>
<path class="st0" d="M29.2,28.6c-0.2,0-0.4,0-0.6-0.1c-0.7-0.3-0.9-1.2-0.6-1.8c1.6-3.2,5.2-5.7,5.4-5.8c0,0,0,0,0.1,0L50.8,10
	c0.6-0.4,1.5-0.2,1.9,0.4c0.4,0.6,0.2,1.5-0.4,1.9L34.9,23.1c-0.3,0.2-3.2,2.3-4.5,4.8C30.2,28.3,29.7,28.6,29.2,28.6z"/>
</svg>
