<svg xmlns="http://www.w3.org/2000/svg" viewBox="0 0 512 512">
  <style>
    * {
    fill: #ffffff;
    }
  </style>
      <path d="M362 0H150C67.3 0 0 67.3 0 150v212c0 82.7 67.3 150 150 150h212c82.7 0 150-67.3 150-150V150C512 67.3 444.7 0 362 0zM492 362c0 71.7-58.3 130-130 130H150c-71.7 0-130-58.3-130-130V150C20 78.3 78.3 20 150 20h212c71.7 0 130 58.3 130 130V362z"/>
      <path d="M362 44H150C91.6 44 44 91.6 44 150v212c0 58.4 47.6 106 106 106h61c5.5 0 10-4.5 10-10s-4.5-10-10-10h-61c-47.4 0-86-38.6-86-86V150c0-47.4 38.6-86 86-86h212c47.4 0 86 38.6 86 86v212c0 47.4-38.6 86-86 86h-60.3c-5.5 0-10 4.5-10 10s4.5 10 10 10H362c58.4 0 106-47.6 106-106V150C468 91.6 420.4 44 362 44z"/>
      <path d="M263.1 450.9c-1.9-1.9-4.4-2.9-7.1-2.9s-5.2 1.1-7.1 2.9S246 455.4 246 458s1.1 5.2 2.9 7.1S253.4 468 256 468s5.2-1.1 7.1-2.9c1.9-1.9 2.9-4.4 2.9-7.1S264.9 452.8 263.1 450.9z"/>
      <path d="M175.8 155.7c-3.8-4-10.1-4.2-14.1-0.5l-0.4 0.4c-4 3.8-4.2 10.1-0.4 14.1 2 2.1 4.6 3.1 7.3 3.1 2.5 0 4.9-0.9 6.9-2.7l0.4-0.4C179.4 166.1 179.6 159.7 175.8 155.7z"/>
      <path d="M256 118c-22 0-43.8 5.3-63.2 15.3 -4.9 2.5-6.8 8.6-4.3 13.5 2.5 4.9 8.6 6.8 13.5 4.3C218.8 142.4 236.9 138 256 138c65.1 0 118 52.9 118 118s-52.9 118-118 118 -118-52.9-118-118c0-20.4 5.3-40.5 15.3-58.2 2.7-4.8 1-10.9-3.8-13.6 -4.8-2.7-10.9-1-13.6 3.8C124.2 208.6 118 232.1 118 256c0 76.1 61.9 138 138 138s138-61.9 138-138S332.1 118 256 118z"/>
      <path d="M256 166c-49.6 0-90 40.4-90 90 0 49.6 40.4 90 90 90 49.6 0 90-40.4 90-90C346 206.4 305.6 166 256 166zM256 326c-38.6 0-70-31.4-70-70 0-38.6 31.4-70 70-70 38.6 0 70 31.4 70 70C326 294.6 294.6 326 256 326z"/>
      <path d="M387.3 86.8c-21 0-38 17-38 38s17 38 38 38 38-17 38-38S408.2 86.8 387.3 86.8zM387.3 142.8c-9.9 0-18-8.1-18-18s8.1-18 18-18 18 8.1 18 18S397.2 142.8 387.3 142.8z"/>
</svg>
