<?xml version="1.0" encoding="utf-8"?>
<!-- Generator: Adobe Illustrator 25.0.1, SVG Export Plug-In . SVG Version: 6.00 Build 0)  -->
<svg version="1.1" id="Layer_1" xmlns="http://www.w3.org/2000/svg" xmlns:xlink="http://www.w3.org/1999/xlink" x="0px" y="0px"
	 viewBox="0 0 422 422" style="enable-background:new 0 0 422 422;" xml:space="preserve">
<style type="text/css">
	.st0{fill:#E5E5E5;}
</style>
<g>
	<path class="st0" d="M247.7,419.5c-12.8-9.7-23.2-20.8-26.7-37.5c-2.5-11.7-4.9-23.6-8.5-35.1c-1.1-3.6-3.1-5.5-7.2-5.3
		c-14.6,0.5-29.3,0.7-43.9,0.4c-32.5-0.6-65,0.1-97.5-0.4c-7.6-0.1-17.4-10.3-18-18.3c-0.1-1,0-2,0-3c0-99.5,0-199,0.1-298.5
		c0-7.8,2.5-14.7,10.4-18.4c1.9-0.9,3.9-1,5.9-1c83.2,0,166.3,0,249.5,0c9.7,0,18.2,8.5,18.2,18.2c0,66.8,0,133.7,0,200.5
		c0,6.4-6.6,10-12.4,6.9c-1.2-0.7-1.6-1.7-1.6-2.9c-0.1-1.8-0.1-3.7-0.1-5.5c0-60.5,0-121,0.1-181.5c0-5-0.7-10-1.1-14.9
		c-0.3-3.5-2.3-5.4-5.8-5.7c-1.7-0.1-3.3-0.1-5-0.1c-33.3,0-66.7-0.2-100,0c-42.8,0.3-85.6-1.6-128.4-1c-5.5,0.1-10,1.5-13.2,6.3
		c-1.7,2.5-1.5,5-1.5,7.7c0,56.5,0,113,0,169.5c0,39.5,0,79,0,118.5c0,7.1,1.6,8.8,8.8,8.8c27.8,0.1,55.7,0.4,83.5-0.1
		c16.1-0.3,32.2,0.6,48.3,0.2c6.3-0.2,6.2-0.9,5.1-7.2c-2.1-11.7-1.3-23.1,5.9-33.4c5.5-7.9,12.6-14.1,19.4-20.7
		c3.6-3.5,5.2-7.2,5.1-12.3c-0.2-26.2-0.5-52.3,0-78.5c0.3-15,11-25.4,25.8-25.5c13.1-0.1,25.3,10.7,25.3,24.9
		c-0.1,25.5,0,51-0.1,76.5c0,4-0.3,6.4,5.6,4.9c8-2,15.5,1,21.3,7c2.9,3,5.5,3.2,9.3,1.9c9.7-3.4,18.8-2.4,26.1,5.5
		c3,3.2,5.4,4,9.4,1.5c8.1-5.2,15.9-2.3,22.7,2.8c7.6,5.7,12,13.1,11.8,23.4c-0.5,24.8-0.4,49.7-0.1,74.5c0.1,12.4-4.8,22.8-12.1,32
		c-4.5,5.6-9.5,11.2-16,14.8C326.4,419.5,287.1,419.5,247.7,419.5z M236.7,283.1c-3.2,3.1-5.8,5.2-7.9,7.6c-5.5,6.4-9,13.7-8,22.3
		c0.9,8.2,3.6,16.1,5.5,24.2c3.2,13.3,6.8,26.6,9.3,40c2.4,12.5,9.7,21.3,19.6,28.1c8.1,5.5,17.7,7.1,27.5,7.1c16-0.1,32-0.4,48,0.1
		c16.6,0.5,29.7-5.8,39.8-18.5c3.3-4.1,6.5-8.9,6.8-14.2c0.5-7.7,1.7-15.4,1.6-23.2c-0.4-20-0.1-40-0.1-60c0-6.5-3.6-10.1-10.1-10.1
		c-7.6,0-9.1,1.5-9.1,9.6c0,2.7,0,5.3,0,8c-0.1,5-3.8,7.9-7.6,9.7c-4,1.8-5.4-2.8-7.8-4.8c-1.5-1.3-1.5-3.3-1.5-5.1c0-5,0-10,0-15
		c0-2-0.4-3.8-1.7-5.6c-3.1-4.1-7.4-4.7-11.7-3.4c-4.5,1.3-5.9,5.6-6.4,9.8c-0.4,3.5,0,7-0.2,10.5c-0.2,3.3-2.2,5.7-5.1,6.8
		c-3,1.2-5.4-0.3-7.5-2.5c-1.8-1.8-2.3-3.9-2.3-6.3c0-5.3,0.2-10.7-0.1-16c-0.4-6.6-4.4-10-10.8-9.7c-5.3,0.3-8.9,4.4-9,10.4
		c0,2.7,0,5.3-0.1,8c-0.2,4.6-3.4,7.3-7,8.9c-3.5,1.5-5.1-2.2-7.3-4.1c-2.1-1.9-2-4.5-2-7c0-20.7,0-41.3,0-62
		c0-17.2-0.1-34.3,0-51.5c0-3.9-1.1-7-4.8-8.4c-6.2-2.4-11.5,0.1-14.2,6.2c-1.1,2.4-0.9,4.9-0.9,7.4c0,40.3,0,80.6,0,121
		c0,5.8-3,9.1-7.7,9c-4.5-0.1-7.2-3.4-7.3-8.9C236.7,295.8,236.7,290.1,236.7,283.1z"/>
	<path class="st0" d="M224.3,116.4c-18,0-36,0-54,0c-2.7,0-5.3,0-7.3-2.3c-2-2.3-5.5-4.3-3.6-7.9c1.8-3.5,4.4-6.7,9.2-6.7
		c10.7,0,21.3,0,32,0c25.3,0,50.6,0,76,0c2.1,0,4.5-0.5,6.2,1.2c3,2.9,6.7,5.6,4.9,10.5c-1.6,4.4-5.4,5.3-9.8,5.2
		C259.9,116.3,242.1,116.4,224.3,116.4z"/>
	<path class="st0" d="M89.6,94.8c-2-14.4,8.8-25.9,21.9-29.8c7.8-2.3,13.7,1.7,13.3,9c-0.3,5.6-4.7,6.6-8.6,7.3
		c-8.5,1.5-12.5,5.7-12.3,13.8c0.1,3.9,4.4,9.8,8.1,11.1c8.9,3,16.9-1.6,18.7-11.1c0.6-3.3,2-5.7,4.9-7c5.6-2.6,9.7,0.3,10.4,6.2
		c1.5,12.6-8.8,22.7-16.9,26.5c-11,5.2-22.4,2.8-31.1-5.7C92,109.3,88.1,102.9,89.6,94.8z"/>
	<path class="st0" d="M89.6,172.1c-0.1-13.8,7.4-24.6,20.5-28.9c3.8-1.2,7.9-1.6,11.4,1.3c2.4,1.9,4,4.1,3.1,7.3
		c-0.9,3.1-2.9,5.3-6.2,5.7c-4.8,0.6-8.2,3.2-11.5,6.4c-3.8,3.6-3.8,7.7-2.1,11.9c1.9,4.7,4.6,8.8,10.8,8.8c9.9,0,14-3.5,15.2-13.6
		c0.4-3.7,4.1-7.3,7.6-7.4c3.4,0,6.9,3.7,7.3,7.5c1.2,11.2-3.8,19.3-13.1,24.8c-4.7,2.8-9.2,5.6-15.2,5.6c-9.8,0-24.9-9.7-27.7-21
		C89,177.9,89.6,174.9,89.6,172.1z"/>
	<path class="st0" d="M209.3,88.5c-13.1,0-26.3-0.2-39.4,0.1c-4.9,0.1-7.8-2.6-10.2-6c-2.4-3.4,2-9.9,7.1-10.9c1-0.2,2-0.2,3-0.2
		c26.3,0,52.6,0,78.8,0c5.2,0,9.2,2.7,9.9,6.5c1.2,5.8-2.6,10.4-8.9,10.4C236.3,88.5,222.8,88.5,209.3,88.5z"/>
	<path class="st0" d="M192.3,194.5c-7.7,0-15.3-0.2-23,0.1c-5,0.2-7.7-3-9.9-6.5c-2.3-3.8,3.3-10.3,9-10.5c6.6-0.2,13.3-0.1,20-0.1
		c8.8,0,17.6,0,26.5,0c5.9,0,8.9,2.9,9,8.3c0.1,5.7-2.9,8.6-9.1,8.6C207.2,194.5,199.7,194.5,192.3,194.5z"/>
	<path class="st0" d="M192.2,164.6c-8.3,0-16.7,0.1-25,0c-4.8,0-8.5-3.1-8.4-6.7c0.1-4.3,3.8-8.2,8.4-8.2c16-0.1,32-0.1,48,0
		c5.6,0,8.6,3.6,8.6,8.9c0,4.2-2,6.1-6.1,6.1C209.2,164.6,200.7,164.6,192.2,164.6z"/>
	<path class="st0" d="M191.7,242.7c-7.6,0-15.3,0.1-22.9,0c-5.1-0.1-8.2-2.9-8.1-7.4c0-4.4,2.7-6.9,7.9-6.9
		c15.6-0.1,31.3-0.1,46.9,0c5.2,0,8.5,3,8.3,7.2c-0.2,4.2-3.4,7-8.6,7.1C207.4,242.7,199.5,242.7,191.7,242.7z"/>
</g>
</svg>
