<svg id="Слой_1" data-name="Слой 1" xmlns="http://www.w3.org/2000/svg" viewBox="0 0 1249.9 334.63"><defs><style>.cls-1{fill:#e5e5e5;}</style></defs><path class="cls-1" d="M350.13,371.45c5.32,3.58,8.3,8,11.71,12.11a39.7,39.7,0,0,0,3.54,3.31c2.86,2.68,8.94,2.19,9.32,6.19.26,2.77-3.81,5.87-5.72,9-2.32,3.73-5.87,7.48-6.2,11.45-.36,4.32,5.9,5.12,8.55,8.34a38.67,38.67,0,0,1,7.05,11.84c2.53,7.23,4.9,14.47,11.5,19.35,2.05,1.51,2.78,3.73-1.09,3.77a14.47,14.47,0,0,0-8.86,3.52c-10.3,8-21.93,10.66-34.62,8.67-4.51-.7-6.18.29-4.68,4.92a11.57,11.57,0,0,1,.42,3.43c.09,4.62,5.43,9.65,2.58,12.8-2.38,2.64-8.66,1.64-13.18,2.48-10.82,2-21.32,6.33-32.75,3.18-5.88-1.63-10.64-5.49-16.75-7.52.16,1,.06,1.69.38,2.1,8.91,11.66,7,22.82-.22,34.72-4.85,8.06-8,12.91-19.9,10.28-13.57-3-26.67-5-37.18-14.79-1.35-1.26-3.13-2.37-3.85-3.94-4.46-9.66-11-10-19.94-6-9.19,4.13-20.06,3.71-28.6,10.08-2.34,1.75-3.89.78-5.31-1.93-4.7-8.93-12.25-16.29-14-26.86-.66-4-4.88-3.92-7.93-4.37-20.34-3.05-40-28.89-37-46,1.91-10.73-.85-15.15-10.67-19.69-10-4.64-16-15.11-21.65-24.75-3.19-5.45-10.21-10.81-9-16.05,1.13-4.87,8.82-8.14,13.5-12.26,6.78-6,13.3-12.18,23-13.3,3.46-.4,6.77-1.13,10.1.92.5-2.92-.87-4.65-1.74-6.39-5.41-10.92-6.85-21.85-1.7-33.4,2.38-5.32,2.52-11.25,2.19-17.08-.21-3.66-.81-6.05,4.92-3.84,10.1,3.9,20.93,5.93,30,12.44,2,1.43,3.08.33,3.49-1.54,2-9.22,8.74-15,15-21.14a82.58,82.58,0,0,0,9.78-11.69c1.63-2.28,3.42-3.5,5.37-.6,3.79,5.65,9.94,8.26,15.27,11.77,8.49,5.61,15.95,11.85,19.89,21.54.47,1.16.79,3,2.68,2.48,1.25-.31,1.51-1.64,1.72-2.8,3.09-17,15.33-25.58,29.68-32.22,1.89-.88,4.11-1.42,5.55-2.78,5.22-4.92,8.12-3.06,10.65,2.74,3.31,7.57,10.84,12.85,11.52,21.54l12.31-11c9.42-8.4,17.84-6.25,21.64,5.55,4.85,15,9.16,30.16,3.74,47.83,9.57-9.35,20.93-10.88,31-15.25,2.83-1.22,5.44-1,5.7,2.51.66,8.93,5.07,16.79,6.75,25.43S358.44,366.09,350.13,371.45Zm-96.85,39.1c1.62-5.12,6.12-8.33,8.5-13.44-15,8.93-29.52,19-48.49,13.74,4.5,1.22,9.05.34,12.93,3,7,4.88,13.87,3.81,20.65-.63,1.91-1.26,3.85-2.6,6.31-2.62-7.86,9-17.53,11.12-27.82,5.63-4.8-2.56-9.52-3.69-14.55-1.53-4,1.71-5.76,4.61-3,8.82,6.29,9.59,22.94,15.54,35.34,12.63s27.78-18.24,28.9-28.94c.33-3.11.1-6.36-3-7.92-3.4-1.73-5.49,1.3-7.69,3.18C258.5,405,257.76,409.65,253.28,410.55ZM89,370.79c9-11.42,19.62-9.07,30.85-2.63-2.24-6-8.89-10.36-14.53-9.5-11.45,1.75-20.24,7.93-26.92,17.25-2.29,2.35-5.13,4.8,1.15,5.34,11.28,1,18.58,7.36,23.34,17.21,3.63,7.5,7.18,15,12.93,21.26,3.81,4.13,8.32,6.89,14,6.43,12-1,23.91-2.59,36-.88,2.08.3,5.75.28,5.9-2.11.18-2.84,0-6.7-3.87-8.12-1.73-.64-3.55-1-5.31-1.58a34.31,34.31,0,0,1-17.61-11.76q-8.08-10.4-16-20.92c-11-14.62-22-17.61-38.56-10.35A9.64,9.64,0,0,1,89,370.79Zm26.65-71.41c4.65,8,3.22,15.42-.56,22.78-2.91,5.66-2.21,11,.87,16.47A182.53,182.53,0,0,0,178.34,404a23.11,23.11,0,0,0,18.57,3.17c-5.57-3.34-10.34-6.14-15-9-14.71-9.06-18.11-23.86-8.51-38,1.79-2.64.59-4.21-.69-6.14a99.17,99.17,0,0,1-11.09-21.51C153.93,310.88,136.05,303.7,115.6,299.38ZM280.39,415.25c4.62,1.15,8.29,1.88,11.33,4,21.53,14.9,49.62,3.8,63.26-11.43,9.32-10.41,9.31-10.67-2.87-17.16-.82-.43-1.62-.89-2.44-1.32-13.7-7.21-27.51-7.19-41.12,0C297.33,395.21,289.46,404.93,280.39,415.25Zm-71.56-73c.25,3.92.35,6.46.59,9,.47,5,1.92,7.89,8.29,6.53a24.25,24.25,0,0,1,20.3,4.74c2,1.54,4.08,2.6,5.86-.18,6-9.35,12.08-18.61,13-30.17.84-10.41-2.34-18.55-12.15-23.49a21.34,21.34,0,0,1-6.58-5c-2.95-3.47-5.42-3.11-8.77-.56C216,313.31,209.71,327,208.83,342.21Zm-3-20.72c.33-5-.94-9.53-2.62-14.19-4.32-12-15.81-17.89-22.82-27.57-1.53-2.13-2.74.15-3.26,1.64-2,5.74-5.47,10.63-8.66,15.74-8.48,13.58-5.57,31.67,6,42.43,8.31,7.7,17.77,13.72,27.14,19.93,2.5,1.66,4.5,1.67,3.58-1.58C201.75,345.63,204.54,333.59,205.83,321.49Zm35.8,147.23c-1.22,9.78-6.59,16.51-11.57,23.38-5.26,7.27-5.72,13.47-.8,20.95a44.7,44.7,0,0,0,16.16,14.88c7.12,3.84,15.71,4.84,22.84,2.64,4.85-1.49,2.69-9.93,4.37-15.07a13.06,13.06,0,0,0,.57-2.71c1.91-20.17-2.93-30.42-19.5-36.58A39.4,39.4,0,0,1,241.63,468.72Zm-2.56-26.27c-2.4,2.5-4,4.35-2.73,7.69,7.72,19.8,35.56,31.73,55.31,23.55,1.49-.61,3-1.13,3.76-2.78,4.16-8.64,1.7-25.29-4.81-32.86-5.71-6.63-12.92-10.85-20.76-14.57-3.18-1.51-4-1.7-5.41,1.32-3,6.72-8.5,10.74-15.18,13.4-7.88,3.13-9,6-5.19,13.6a40.27,40.27,0,0,0,4.51,7.78c8.61,10.52,20.52,10.63,32.37,9,7.84-1.08,4.81-9.37,7.36-14.06.22-.39.25-.9.45-1.31,3-6.22.63-11.06-3.78-15.54a24.56,24.56,0,0,0-13.8-7.38c-1.68-.28-4.25.37-4.52-2.66,19,1,27.73,12.08,23.49,29.87a29,29,0,0,0-1,4.74c-.42,7.11-4.44,9.51-11.17,9.55C255.45,471.9,243.43,465.19,239.07,442.45ZM162.53,481.4c2.76-.23,5.55-.31,8.28-.73,22.78-3.54,40.51-16,56.09-32.08,1.3-1.34,4.18-2.69,2.24-4.94-1.65-1.91-4.61-1.4-6.35.19a129.82,129.82,0,0,0-11.09,11.41,47.49,47.49,0,0,1-25.42,16c-16.77,4-35.77-.38-39-23.76-.23-1.65-.4-3.38-2.07-4.11-6-2.61-10.8-7.11-16.44-10.26-4.52-2.52-9-1.45-13.14,1.08-4.35,2.65-4,7-3.39,11.16a25.06,25.06,0,0,0,4.52,11.53C128.26,471.94,141.64,483.68,162.53,481.4Zm117-1.83c10.9,7.63,22.51,13,36.09,11.6,6.64-.71,13.19-2.18,19.8-3.18,3.38-.5,3.28-2.45,2.62-5-1.86-7.18-2.45-14.56-3.36-21.9-.83-6.72-3-13.07-7.51-18.34-1.63-1.91-3.36-4.16-6.32-3.51-8,1.72-15.94.93-24.84,0a32.61,32.61,0,0,1,4.73,18.53q-.28,9.26-.6,18.52C293.14,476.16,286.74,479.93,279.52,479.57ZM300,298.22c0-3,.05-6,0-9,0-1.32.08-3-1.77-3.24-1.37-.2-2,1.1-2.51,2-2.85,4.84-7,8.57-10.57,12.81-4.35,5.18-8.35,10.73-9.21,17.58-2.08,16.47-9.51,30.22-20.44,42.34a17.19,17.19,0,0,0-4.2,11.44,4.13,4.13,0,0,0,1.32,3c1.13.87,2.09-.4,2.84-1.18,5.54-5.75,12.78-9,19.29-13.41,6.83-4.56,12.85-10.06,15.79-17.91A145.44,145.44,0,0,0,300,298.22Zm38.9,69.65c8.31.76,14.61-7.41,10.94-17.32-1.83-5-4.47-9.72-5-15.05-.44-4.42-2.35-4-5.49-2.66-8.93,3.76-15.14,10.58-20.11,18.41a63.2,63.2,0,0,1-25.69,23.48,92.09,92.09,0,0,0-11.66,7.41c-3.29,2.3-5.36,5.71-7,9.29-.89,1.94-1,4.13.59,5.85s3.49.61,5.19.13c4.85-1.39,8.27-4.7,11.59-8.37C304.2,375.88,318.24,366.94,338.93,367.87Zm-12.61,69.62a32.92,32.92,0,0,1,9.92,13.75c4.06,10.28,10.79,13.2,21.12,9a105.21,105.21,0,0,0,11.93-5.57c3.64-2,9.66.49,11.15-3.68,1.31-3.65-3.13-7.32-4.4-11.27-2.2-6.85-4.92-13.46-10.54-18.42-3.23-2.85-6.22-3.53-9.73-.37C347.61,428.25,338.56,434.14,326.32,437.49Zm-150.63-8.27c-14-2.18-24.37,8.15-37.52,5a7.68,7.68,0,0,0,6.15,4.7c5.57,1,8,3.23,7.75,9.66-.38,9.08,5.88,16,14.8,18.61,19,5.5,38-5.67,49.86-24.58-4-.38-7.16,1.74-10.29,3.6-15.95,9.48-31.08,5.65-46-2.66-3-1.69-3.13-3.25.31-4.52C166.08,437.1,170.11,433.29,175.69,429.22ZM228,462.33c-.28-2.18.51-4.48-1.45-5.46s-3.32,1.12-4.6,2.27c-14.93,13.45-32.5,22.11-51.66,27.39-6.19,1.71-7.24,4.62-5.52,9.86.65,2,1.55,3.85,2.34,5.77,1.85,4.49,3.72,7.32,8.45,2.11,3.27-3.61,8.22-5,12.75-6.82,10.35-4,20.71-7.95,29.54-15.08C224.46,477,227.37,470.12,228,462.33ZM182.5,362.41a11.7,11.7,0,0,0-11.69,14c3.18,15.87,16.22,21.36,28.77,27.26,2.89,1.36,6.94,2.15,8.89-1s-.95-6.29-3.41-8.13c-5.76-4.3-8.51-10-9.74-16.85a34.25,34.25,0,0,0-3.74-9.61A10.53,10.53,0,0,0,182.5,362.41Zm41.88-59.12c1.82-1.73,3.62-3.48,5.46-5.19,2.76-2.56,5.3-6,7.71.65,1.2,3.31,3.53,2.05,4.89-.56,1.82-3.47,3.5-7,5.41-10.45,1-1.83,2.39-3.74,4.78-3.41s2.21,2.64,2.51,4.41c1.61,9.47,7.69,16.81,11.42,25.54,8.73-11.75,8.48-22.23-1-33-7-8-6.45-8.45-16.26-4C237.63,282.58,227.66,289.61,224.38,303.29Zm21.33,87.15a8.7,8.7,0,0,0-3.29-7.3c-6.18-4.64-11-10.08-14-17.43-2.06-5.08-6.63-5-11.16-3s-6.26,5.08-4.1,9.92c1.69,3.78,2.47,8.13,4.81,11.39,4.15,5.77,4.82,14,14.21,16.24C240.76,402.37,245.71,400,245.71,390.44Zm-130.42-84.3c-1.37,5-2.25,9.45-3.84,13.67-3.22,8.5-2.18,16.37.89,24.89,5.15,14.33,14.37,25.73,23.77,37.18C151.75,401,172,411.93,196.06,416.35c5.22,1,5.25.75,7.49-4.8-17,2.07-21.16.82-34.82-10.45-2.14-1.76-4.29-3.54-6.57-5.12-21.25-14.66-35.71-35.2-49-56.73-3.55-5.77-3.8-11.8-.38-17.79A22.13,22.13,0,0,0,115.29,306.14Zm121,163.49c-1.83-4.63-1.24-9.54-1.64-14.37-.16-2-.37-4.7-3.24-4.31-2.23.3-2.25,2.55-2,4.51.18,1.6.21,3.23.35,4.84,1,11.37-3.34,19.87-12.64,26.73-9.49,7-20.21,11.16-30.85,15.59a39.67,39.67,0,0,0-13.13,8.81c-1,1-1.95,2.37-1.12,3.71,1,1.63,2.47.53,3.59-.11,4.7-2.68,10-3.57,15.06-5.1,8.84-2.65,17.85-4.95,25.62-10.33C226.87,492.28,233.29,482.26,236.32,469.63Zm-71.84-28c12.66,8.14,25.53,10.11,39.05,2.68,5.66-3.11,11.27-6.2,19.15-4.86C200.38,422.1,183.62,424.67,164.48,441.62ZM251,394.14A71.82,71.82,0,0,1,276.77,374c8.64-4,15.47-9.86,21.89-16.57,14.45-15.14,18.54-41,9-61.36,0,2.87-.09,4.87,0,6.86.74,14.63-2.76,28.38-8.45,41.7-4.15,9.71-10.43,17.13-20.46,21.45-6.74,2.91-13.47,6.06-19.43,10.55C254.05,380.61,250.72,385.53,251,394.14Zm22.91,26.94c7.15,5.57,16.3,4.54,22.9,8.74,19.88,12.66,62-4.77,68.94-31.12-1.44-.08-1.86,1.12-2.46,2-18.69,27.65-43.82,34.29-74.29,20C284.52,418.56,279.25,415.78,273.94,421.08Zm19-26.83L309.06,384c15.85-10.07,24.81-9.69,39.89,1.23,4.71,3.41,9.47,7.22,16.22,6.91-9.76-11.61-18.39-22.9-36.39-20.66C312.62,373.48,302.43,382.76,292.92,394.25Zm-220-10.69c13,16.9,30.68,33.35,37.75,34.95-4.66-7.46-8.46-15.09-12.32-22.68C93.55,386.5,84.22,382.12,72.87,383.56Zm210-6.19c10.58-5.5,21.69-10.2,29-20.24C320,346,327,333.64,341.14,328.43c-11.25,1.93-22.07,5.62-28,15.27C305.06,357,294.8,367.75,282.84,377.37ZM260.25,338.2c6.45-15.78,4.13-27.21-9.05-48.54-2.86,1.72-2.79,5.19-4.53,7.52-3.63,4.89-2.7,8,2.9,10.6,6.31,2.94,9.71,8.56,10.57,15.3C260.72,327.58,260.25,332.22,260.25,338.2Zm-69.32,23.23c9,11.77,7.3,29.2,22.41,36C216.71,384.62,206.46,367.47,190.93,361.43Zm74,116.94a30.15,30.15,0,0,1,10.92,23,91.29,91.29,0,0,1-2.89,27.84C289.52,511,287.91,496.35,264.9,478.37Zm38.59-186.25c-3.41,27.42-3.17,54.31-28.66,71.91C295.6,360.6,307.58,322.79,303.49,292.12ZM188.17,284.4c12.28,9.71,20.18,21.77,20.75,39C217.13,309.28,209.82,296.14,188.17,284.4ZM266,341.77c6.16-18.58,8.31-39.07,25.14-52.54C274.64,302.52,266.25,320.08,266,341.77Z" transform="translate(-65.96 -217)"/><path class="cls-1" d="M1105,326.63c-16.6-14.32-16.6-14.32-24.83-39.45,3.58,1.82,6.71,3.52,9.93,5,2.33,1.09,3.4.15,2.24-2.18-4.66-9.4-3.43-19.91-5.76-29.74-.8-3.39.78-3.29,3.22-2.78,8.24,1.71,14.39,7.14,21.5,12.2,2.23-12.18,7.94-22.46,14.26-32.46.84-1.33,1.2-3.47,3.38-3.06,1.87.36,1.45,2.33,1.87,3.66a16.19,16.19,0,0,0,5.37,8.25A56.29,56.29,0,0,1,1148.88,260c1.66-13.15,11-19.84,17.84-28.32.78-1,1.1-2.74,2.6-2.58,1.92.2,1.59,2.26,2,3.53,1.55,4.62,3.83,9.17,2,14.53,4.59-8.83,13.51-11.35,21.16-15.62,2.58-1.44,2.83.06,2.72,2.07-.34,6.32,2.69,11.63,4.94,17.57.93-.74,1.5-1.16,2-1.61,2.22-1.83,2.81-6.49,5.65-5.94,2.11.42,3.53,4.35,5.26,6.71a4,4,0,0,0,.69.87c3.71,2.78,2.74,10.59,8.1,10.19,4.13-.31,8.7-2.67,13-4.44,9.92-4.13,9.9-4.15,13.62,6.15.56,1.56,1.26,3.08,1.85,4.63,3.33,8.63,8.79,11.39,18.16,9.22,1.39-.32,3-1.63,4.14-.41,1.27,1.39-.1,3.12-.66,4.6-5.06,13.29-6.4,11.45,9.57,12.74,2.47.19,5-.62,8-1-1.08,4.54-3.86,7.58-5.56,11.14-1.18,2.48-1.39,4.1,2,4.55,9.29,1.21,16.78,7.72,26.11,8.94,2.24.29,2,1.81.78,3.22-6.46,7.83-12,16.43-19.4,23.46a28.7,28.7,0,0,1-17.35,7.79c-1.15.12-2.93,0-3.33,1.49s1.22,2.14,2.21,2.82c7.34,5.07,9.36,13.42,13.2,21.4-16.81-.2-32.73,5.27-49.29,5.58-1.72,0-3.44.23-4,2.21-1.5,5.1-5.48,8.21-9.14,11.58a20.28,20.28,0,0,0-6.17,9.68c-.57,2.09-1.67,4-3.47,1.15-3.81-6.13-10.19-7.69-16.29-9.65-8.24-2.65-17.26-3.89-19.93-14.33-.51-2-2.72-1.6-4.35-1.55-9.33.27-18.76-2.75-28,1-1.7.69-2.6-.65-3.56-1.89a115.65,115.65,0,0,0-7.38-9c-9.19-9.67-11.2-19.81-6.17-32.65-4.77,6.72-10.45,4.5-16.44,2.84a192.71,192.71,0,0,0-21.7-4.27c5.06,3.24,8.67,7.93,13,11.85,5.94,5.4,12.76,6,20.82,3-7.43,7.46-14.5,5.21-29.65-8.52,3.39,7.24,6.92,11.51,11.62,13.6,5.77,2.58,12,2.34,18.16,1.9-7.66,5.65-20.93,2.14-27.57-6.82-2-2.66-3.69-5.53-5.67-8.2-2.81-3.82-7-5.84-13-8.34C1091,334.22,1097,329.26,1105,326.63Zm114.16,27.61c4,2.19,3.94,6.35,4.87,10,2.94,11.72,8.41,16.24,19.77,16a81.49,81.49,0,0,0,10.45-.95,165.74,165.74,0,0,0,22.17-4.36c-2.66-1.9-4.93-1.53-7.11-1.67-7.1-.45-13.84,1.87-20.76,2.82-10,1.39-16.09-1.7-19.73-10.9a42.47,42.47,0,0,0-7.49-12.12c4.73,1.2,7,5.18,8.19,9.07,3.63,12,11.7,13.13,22.35,11.22,9.61-1.72,19.17-3.86,30.06.76-3.72-5.43-6.35-9.83-9.54-13.78-5.93-7.38-13.8-10.05-23.13-8.46-7.86,1.33-15.74,2-23.65.41a5.52,5.52,0,0,0-4.25.8l-2.26,1.05c-3.33-.67-4.85-5.87-9.82-3.91,6.36,8,7.21,19,17.15,26.13C1222.44,368.48,1221.63,361.11,1219.13,354.24ZM1218,298.75c-1.7,2.55-4.13,4.71-4.23,8.12-.06,2.37.58,3.8,3.43,3.65a15.81,15.81,0,0,0,14.87-13c-4.79-.52-9.39,1-14.09,1.22.9-5.5,4.72-4.47,8.46-3.86,3.4.56,6.75.64,8.6-3.12.84-1.72-1.14-13-2.42-13.86a2.94,2.94,0,0,0-1.53-.4c-7.51-.19-17.81,12.46-16.09,19.62C1215.46,299,1216.81,298.58,1218,298.75Zm-71.83,38.69a24,24,0,0,1-1.67,2.17c-8.4,8.81-8.52,12.32-1.11,21.83,3.81,4.88,8.68,9.24,8.38,16.31-.09,2.19,1.71,2.15,3.2,1.76,6.25-1.61,12.49-.2,18.73-.06a34.6,34.6,0,0,0,14.6-2.48c5.84-2.52,9.94-8.31,9.52-13.7-.24-3-.83-6.39-5-5.78-3.65.55-6.94-.6-10.38-1-7.27-4-13.23-9.71-19.58-15.51-3.71,7.25-4.81,14.17-1.23,21.38-5.66-4.87-4.23-11-2.34-16.72,1.63-5,2.31-9.49-.92-14l-3.84,1.94c-16.64-.58-25.46,11-20.58,26.71,2.63,8.48,10.6,12.78,14.63,21.26,2.53-5.41.9-8.91-1.3-12.1s-5-6.35-7.52-9.57C1133.4,351.53,1136.26,341.49,1146.17,337.44Zm73.34-.38c-3.81,1.37-7.13,3.12-10.66,3.73-11,1.91-21.69,2.18-30-7.22a22,22,0,0,0-11.91-6.62c-4.84-1.13-6.07.07-4.91,5,4.36,18.59,26.69,27.79,42.8,18,6-3.65,10.57-9.29,17.36-11.69a2,2,0,0,0,1.28-2.23,2.88,2.88,0,0,0-2.35-2.1,16.16,16.16,0,0,0-8.75.3c-9.62,2.72-18.5,1.59-26.92-4.17a23.78,23.78,0,0,0-15.26-4.12,28.6,28.6,0,0,1,11.33,7.59c3.34,3.61,7.58,4.42,12.37,5.13a37.76,37.76,0,0,0,21.55-2.61C1216.54,335.5,1217.89,335.05,1219.51,337.06Zm65.3-39.62c-24-3.65-29.43,0-41.08,27.28,7.44-2.37,15.19-3.34,20.88-8.55,2.81-2.57,4.19-3.16,6.1.24,1.78,3.17,3,2.46,4.22-.43C1277.61,309.73,1279.9,303.28,1284.81,297.44Zm-68.33,72c-.65,2.09-1.12,3.24-1.36,4.43-1,4.85-3.08,9-8.26,10.05-4.83,1-8-1.9-10.18-6-1.63-3-3.11-.85-4.17.44-3.22,3.92-.94,10.07,4.79,12.39,6.7,2.72,13.29,5.6,19.08,10,1.62,1.22,2.9,1.67,3.95-.5,2.29-4.73,5.94-8.39,9.34-12.3,2.34-2.69,2.5-5.87-1.36-7.77A25.67,25.67,0,0,1,1216.48,369.46ZM1238,300.7c2.81-2.3,5.67-4.55,8.43-6.93a9.66,9.66,0,0,0,3.38-10,145.26,145.26,0,0,1-4.08-24.49c-.11-1.78-.6-2.95-2.72-1.85-6.57,3.4-13.21,6.74-17.67,12.94-1.36,1.89-3.71,4.51-2.16,6.38,1.75,2.12,4.25-.43,6.3-1.4,1.49-.71,2.92-1.58,4.42-2.26s2.44-.18,2.86,1.46C1238.9,283,1241.2,291.37,1238,300.7Zm-112.44-3.63c2.22-2.09,2.21-5.45,5.76-5.92,1-.13,1-1.46.85-2.37-1.4-9.51,2.82-18.11,4.32-27.15.61-3.64,2.28-3.78,4.83-1.59a8.42,8.42,0,0,0,6.9,2.33c-5.18-8.09-12.88-13.05-19.2-19.92.1,9.76-4.19,18.33-6.07,27.46-.63,3-1,6.45.22,9.33C1125.68,285,1127.07,290.69,1125.55,297.07ZM1255,342.16c5-6.18,12-11.21,11.41-20.35-15.18,4.7-26.17,15.38-38.72,24.42,13.56,2.15,26.56,3.25,37-7.62,5.43-5.65,6.25-12.42,3.67-19.81C1269.83,330.08,1263.9,337,1255,342.16Zm-71.09-65.31c1.35-5,5.68-10.65.34-15.47-3.85-3.49-8.66-8.33-12.89-8.19-3.1.11-5.12,7.77-6.76,12.47-3.49,9.95-2.76,11,6.34,16.12,2.94,1.63,3.89.66,5.09-1.43,1.57-2.75,3-5.55,4.85-8.83C1182.15,273.71,1183,275.28,1183.94,276.85Zm11.08,51c-5.28-4.65-7.81-10.37-4.87-16.83,2.36-5.17,2.81-9-2.44-12.26a1,1,0,0,1,0-1.77c4.26,3.63,5.47,3.52,7.13-.63,1.29-3.24-3.11-13.44-7.07-14.49-3.78-1-3.82,3.88-6,5.69a8,8,0,0,0-1.68,2.83c-1.15,2.48-3.11,5.34-1.28,7.73,1.63,2.15,3.31-2.54,5.65-1.18C1176.49,310.07,1180.89,323.32,1195,327.85Zm-2.65-52.59c2.27-4.48,4.09-4.86,7-.65,2.28,3.28,5.74,5.72,8.44,8.74,1.55,1.75,2.18,1.67,3.59-.23a25,25,0,0,0,1.12-27.62c-.82-1.31-1.87-3.66-3.63-1.53C1203.27,260.85,1195.12,265.75,1192.37,275.26ZM1133,320.63c-2.55-4-4.43-6.89-7.54-9.13-10.75-7.74-15.11-18.74-15-31.65.08-9.07-4.67-14-14.24-14.12C1104.72,286,1107.18,310.4,1133,320.63Zm109.6-15.08c-5.26,4.52-11.47,6.81-17.34,9.78-4.57,2.31-9.2,4.79-12.12,9.32-1.1,1.71-2.26,3.65-1.1,5.66s3,.48,4.56.55c1.28.06,2.57.07,3.85.21C1231.85,332.34,1244.83,317.84,1242.55,305.55ZM1154,294.78c-.51,6.54,1.91,11.93,6.56,16.37,1,1,2.44,2.23,3.88,1.7,2-.73.59-2.52.55-3.85,0-1.65-.33-3.31-.3-5,.06-3.38-3.33-8.83,4.49-7.83.36,0,1.17-.63,1.17-1,0-3.61,2.3-7.53-.08-10.73a13.5,13.5,0,0,0-10-5c-2.73,0-4.42,4.34-5.24,7.67A24.7,24.7,0,0,0,1154,294.78Zm146.57,26.58c-5.12-4.14-12-6.37-16-5.92-4.38.48-4,4.88-6.14,7.13-.39.4-.6,1-1,1.29-5.81,3.94-5.2,11.25-10.07,16.63,7.64-.71,13.62-2.22,17.49-7.43S1293.29,323.44,1300.57,321.36Zm-156.14-35c4.83-.16,8.12-.4,10-4.3,4.45-9.06-.67-17.31-11.16-17.79-1.32-.06-2.26.31-2.55,1.51-1.51,6.22-4.18,12.26-3.55,18.84.24,2.46.26,7,4.32,2C1142.7,285.19,1144.3,286.4,1144.43,286.38Zm69,83.17a24.24,24.24,0,0,0-2.21-10.56c-.52-1.25-1.09-3.37-3-1.85-3.11,2.47-8.46,3-7.65,9.12.24,1.77-1.1,3.82-1.9,5.66-1.76,4,0,7,3.24,8.86,3.44,2,6.74,1.39,9.13-2.15A13.86,13.86,0,0,0,1213.44,369.55Zm-97.85-56.47a91.71,91.71,0,0,1-15.54-30.8,112.11,112.11,0,0,0-4.37-12.54c-1-2.54-2.46-5-5-6.21C1088.74,285.46,1099.83,300.47,1115.59,313.08Zm28.33-24c-4.15,8.89-7.21,17.42-.27,25.73,5.31,6.36,11.89,9.32,21,7C1148.84,316.48,1145.48,303.5,1143.92,289.12Zm6.91,35c-11-7.58-16.79-16-12.7-28.45.4-1.2.87-2.49-1.28-2.79-4.33-.6-7.92,1.81-7.92,6.19,0,5.31.42,10.69,3.37,15.42C1136.2,320.75,1141.77,324,1150.83,324.14Zm42-85.49a51.61,51.61,0,0,0-12.32,11.11c-2.11,2.75-2.19,4.84,1.24,6.56a15.92,15.92,0,0,1,6.2,5.36c.77,1.13.72,3.39,2.48,3.21s2.27-2.2,3-3.68a14.08,14.08,0,0,0,1.35-8.57C1194.07,248.3,1193.52,243.94,1192.8,238.65Zm-60.55,88.27c-17.12.66-29.34-6.56-37.1-22a25.9,25.9,0,0,0-9.57-10.52C1086.78,315.37,1104.66,327.88,1132.25,326.92Zm-6.2-84.31c-9.89,14.5-15.69,30.06-11.77,47.95,1.23,5.6,2.83,11.18,8.93,14.85-.58-3.41-.36-6.46-1.59-8.73-8-14.75-5.8-29.06,1.27-43.28A25.81,25.81,0,0,0,1126.05,242.61Zm43.11-7.33a42.8,42.8,0,0,1-7.41,12.23,29.6,29.6,0,0,0-6.08,11.06c-1,3.21-1.4,6.53,1,9.44.67.8,1.2,2.2,2.49,1.65.63-.26,1.09-1.44,1.21-2.27,1.08-7.36,5.08-13.39,9-19.4C1172,244,1172.4,240.21,1169.16,235.28Zm-71.65,100.4c1.41,2.11,3.46,1.63,5.19,1.89a99.76,99.76,0,0,1,19.33,4.66,6.46,6.46,0,0,0,8.58-4.07c1.06-3.16-3.17-2.46-5-3.35a36.72,36.72,0,0,0-6.37-1.84C1111.63,331,1104.36,331.19,1097.51,335.68Zm174.29-56.44c-4.55-.37-8.38-.62-12.19-1-2.62-.27-3.86.88-3.79,3.4a41.29,41.29,0,0,1-1.23,11.46c-.32,1.25-.75,3,1.49,2.38,4.82-1.26,10.47-1.17,12.21-7.62C1269.05,285.06,1270.47,282.44,1271.8,279.24Zm-181.52,16.13c4.88,5.36,8.54,11.05,12.36,16.65,5.93,8.69,14.45,12.46,24.24,11.4-13.41-7.1-17.59-10.57-27.59-23.07C1097.07,297.58,1094.77,295.13,1090.28,295.37Zm122.32-4.85c-2.89,1.17-5,1.84-6.92,2.83-3.38,1.74-7.44,2.51-9.52,6.23-.63,1.11-1.26,2.29-.47,3.62,1,1.59,2.19.86,3.39.45a6.22,6.22,0,0,1,7.71,2.66c2.54,3.78,3.36,1.78,4.45-.95C1213.09,300.72,1212,295.93,1212.6,290.52Zm-16.39-15c-1.89.39-2.4,2.44-3.72,3.61s-1,2.5,0,3.84c1.93,2.66,4,5.23,5,8.46.75,2.44,2.49,2.52,4.32,1.43,2.18-1.3,5.74-.85,6.15-4.47C1208.09,287.05,1197.67,275.68,1196.21,275.55Zm68.49,72.9c14.46,5.74,34.73-6.11,41.73-25.91-4.93,2.59-7.48,6.89-9.87,11.13-5.06,9-12.92,12.65-22.81,13C1270.87,346.79,1267.82,346.16,1264.7,348.45Zm-94.49-27.09a8,8,0,0,0-6.09-5.78c-3.73-1-6.31-3.55-8.48-6.68a24.68,24.68,0,0,1-4.12-17.32c.13-1.22.77-2.75-.9-3.33a3.78,3.78,0,0,0-2.61.37c-1.51.75-1,2.15-.75,3.41.59,2.7,1.27,5.38,1.72,8.09C1150.57,309.81,1159.64,319.08,1170.21,321.36Zm106.63,22.2c13-.22,16.27-10.38,21.43-18.41C1290.47,330.1,1284.14,336.74,1276.84,343.56Z" transform="translate(-65.96 -217)"/><path class="cls-1" d="M777.25,356.36c17.74,2.64,19.27-9.21,22.58-19.61,6.36-20,13.6-39.68,29.54-54.51,4.89-4.56,9.89-10.84,17.54-7.3,8.45,3.92,9.21,12.34,8.09,20.34-3,21.26-14.3,37.89-30.38,51.46-4.88,4.12-9.67,7.89-10.66,14.78a440.61,440.61,0,0,0-4.84,62.41c0,3.65.28,8.15,3.66,9.87,4.08,2.06,6.41-2.36,8.88-4.78,6.39-6.23,12.06-12.77,14-22.12a23.38,23.38,0,0,1,16-18c9.89-3.33,19.54-2.11,24.17,8.19,4.82,10.74-2.72,16.3-11.64,20.13-5.48,2.35-14.1,3.15-9.32,12.25,4.44,8.44,11.6,5.34,17.37,1.18,7.2-5.18,14.09-10.87,16.77-20.05,1.21-4.16.17-10.58,7-10.43,5.9.14,9.13,4.88,11,9.9,1.55,4.15,2.11,8.67,3.3,13.87,6.73-7.63,10.92-16.29,18.74-21.79,10-7.06,17.39-5.17,22.37,6.15,6.34,14.41,3,28.88,0,43.15-3.82,18.41-8.66,36.61-12.74,55-1,4.32-3.36,10.54,2.12,12.58,5.24,2,7.7-4.24,10.23-7.9,16.95-24.49,25.46-52.53,33.54-80.72,3.89-13.56,6.53-27.55,11.38-40.74,4.62-12.56,0-17.49-11.67-19.26-9.63-1.47-19.23-3.06-32-5.11,12.75-8.31,23.45-4.45,33-1.32,14.49,4.73,21.6,1.05,23.08-14.39.69-7.22,3.08-14.28,4.85-21.37,1.34-5.37,4.75-7.83,10.42-6.92,5.88.94,8,5,7.42,10.15-1,9.34-1.89,18.81-4.29,27.84-3.29,12.41,1.26,16.06,13.16,15.59,7.08-.27,13.95-4.91,22.59-1-9.08,8.19-19.54,7.21-29.31,7.18-6.34,0-11.52-.08-13.4,7.21-7.72,29.82-18.88,58.78-23.11,89.45-1,6.86-3.74,16.38,3.52,20.29,7.58,4.08,13.06-4.31,18.34-8.87,18-15.59,34.12-32,32.34-59.06-.72-10.91,3.71-21.63,10.83-30.51,4.74-5.91,10.46-11.41,18.65-7.77,9.21,4.08,8.5,12.8,6,20.37-2.92,8.87-7.42,17.23-11.34,25.76-2.22,4.84-5,10.35-1.14,14.7,4.16,4.68,8.46-.89,12.57-2.26,11.52-3.85,22.64-9.78,38.45-6.66-10.37,8.63-21.3,7.76-30.55,10.94-13.67,4.7-20.41,10.83-17.45,27.38a77.77,77.77,0,0,1-11.06,55.76c-5.5,8.74-13.09,16.51-24.36,12.85-12.5-4.05-12.65-15.59-11.19-26.27,1.81-13.16,8.19-24.69,14.7-36.09,3.28-5.75,8.42-11,5.77-21.54-5.14,6-9.09,10.81-13.33,15.4a120.42,120.42,0,0,1-12.18,12.15c-25.2,20.43-40.26,15.26-47.63-18.33-8.33,15.42-14.46,30.15-24.19,42.68-4.89,6.31-9.84,13-19.2,10.35-9-2.55-11.13-10.46-12-18.47-2.37-21.2,3.83-41.44,7.52-61.94.92-5.14,2.48-10.17,3.32-15.32,1.26-7.81,7.4-19-1.1-22.36-6.49-2.6-10.9,9.33-14.51,16.09s-6.53,14.25-9.76,21.38c-2.6,5.72-4.83,12.71-12.87,11.24-7.45-1.35-8.92-8-9.28-14.57-.2-3.58,0-7.19,0-10.18-5.37-3.21-7.88.58-10.69,2.27-13.1,7.88-25.18,7.13-34.88-5-4.81-6-7.19-4.92-11.8,0-7.67,8.16-14.76,20.68-27.78,16.93-14.4-4.15-10.91-19.53-13.84-33-6.35,7-11.36,13.27-17.18,18.7-11.1,10.35-22.83,7.07-27.35-7.56a74.82,74.82,0,0,1-2.66-15.43c-.43-4.94-.09-10-.09-15.72-5.52,7.61-10.27,15.11-17.44,20.5-13.53,10.19-24.42,6.56-26.63-10.45-1.35-10.44-4.11-11.73-13.66-9-10.88,3.13-22.3,2.25-29.88-8-3.72-5-7.28-4.64-12.1-3-12,4.15-23.74,4.7-33.94-4.3-4.63-4.09-7.05-1.84-10.13,1.79-7.5,8.86-13.19,23.43-27.44,19.06-16.15-4.95-13.54-21.51-15.12-34.71-.11-.91-.82-1.74-1.55-3.2-5.76,5.36-10.89,11.23-17.07,15.65-12.43,8.9-22.55,4.68-24.7-10.33C507.42,355,510.87,340,513,325c.6-4.33,3.15-8.13,8.35-7.67,6.93.61,10.37,5.52,10.23,11.76-.24,10.94-1.74,21.84-2.33,32.78-.19,3.4-1.75,8.37,2.49,9.78,5,1.66,7.26-3.32,9.13-6.78,4.72-8.73,8.78-17.81,13.37-26.61,2.44-4.7,5.37-9.44,11.86-8.23,6.21,1.16,7.91,6.47,9.09,11.58,2.71,11.71-1.57,22.7-3.77,33.95-1.23,6.3-6.52,15.5-.11,18.69,7.71,3.83,12-6.28,16.19-11.55a224.81,224.81,0,0,0,17.47-26c5.05-8.49,11.33-15.15,21.19-17.26,8.43-1.8,14.49,1.19,16.09,10.27.41,2.34.45,5.37-3.58,5.23-12-.39-22.72,8.48-23.52,19.45-.54,7.43,4.34,9.37,10,8.41,10.82-1.83,21.71-3.83,27.17-15.67,3.82-8.29,9.88-14.79,18.92-17.74,6.49-2.11,12.5-1.6,16.94,4.25,2,2.6,3,6,1.09,8.82-3.64,5.36-4.22-1.59-6.19-1.8-9.29-1-11.67,7.32-15.52,13-3.07,4.52-7.7,10-3.59,15.66,4.64,6.35,11.27,2.84,17.33,1.36,11.29-2.76,16.39-9.43,16.36-21.31,0-6.37.52-15.36,10-14.87,9.83.51,10.17,9.08,9.68,16.63-.58,8.86-2,17.66-2.53,26.52-.21,3.83-2.54,9.66,2.36,11.18,5.42,1.69,7.92-4.14,10.07-8,4-7.31,7.23-15.08,11.1-22.49,2.84-5.45,5.29-12.58,13.24-11.05,8.19,1.59,9.26,8.92,9.9,15.91,1.18,12.84-3.63,24.71-5.82,37-.7,3.9-2.56,9.08,1.87,11.48,4.7,2.55,7.58-2.31,10.19-5.22,10.49-11.68,20.32-23.35,22-40.42C790.72,374.14,793.4,363.25,777.25,356.36Z" transform="translate(-65.96 -217)"/><path class="cls-1" d="M472.39,248.91c-6.6,19.12-1.55,34.61,5.55,49.74,6.86,14.62,15.69,28.34,18.35,44.75,2.86,17.66.65,34.56-8,50.11-11.63,21-36.65,23.09-52.34,5-17.17-19.82-16.58-62.9,1.12-81.72,10.7-11.38,22.43-8.84,27.06,6.2,3.41,11.1-1.42,21.59-3.87,32.13-.43,1.85-3.68,4-5.86,4.29-4.29.59-6.75-2.8-7.66-6.45-2-8.06-3.51-16.26-5.19-24.26-12.84,13.09-13.71,49.14-1.32,62.52,8.61,9.3,23.09,6.86,31.76-6.23,11.88-17.93,15.42-37.72,9-58.4-3.68-11.93-9.09-23.33-13.75-35-5.7-14.24-10.34-28.57-5.19-44.09,1.17-3.54,1.68-6.74-1.43-10.09-8.56-9.21-36.19-13.08-52.26-6.91-16.79,6.46-27.78,21.65-27.36,38.17.16,6.24-.12,13.32,6.46,16.59,7.4,3.67,12.92-1.49,18.05-6,3.53-3.09,6.65-6.64,10-9.93,3.68-3.6,7.24-8.63,13.2-4.4s4.07,10,1.67,15.48c-6.11,13.92-19.15,21.87-32.31,19.7-15.28-2.53-25.9-14.39-27.05-30.23-1.61-22.05,19.85-46,44.48-48.72,15.22-1.7,30.56-1.29,43.9,7.61,7,4.69,12.2,3.65,17.91-1.89a34.83,34.83,0,0,1,19.4-9.5c17.89-2.75,30,8.31,27.45,26.24-1.93,13.54-7.77,26-13.89,38.13-2.73,5.42-7.53,8.9-13.86,8.72-7.26-.21-8.75-6.16-10.7-11.69C482.42,269.22,480.77,258.76,472.39,248.91Zm22,26.69c9.64-11.19,17.21-22.11,20.51-35.41,1.23-5,1.9-11.38-4.3-13.54-10-3.49-19.55-1.25-27.68,5.74-4.07,3.51-7.48,7.16-4,13.35C484.16,255.15,488.88,264.85,494.43,275.6Z" transform="translate(-65.96 -217)"/></svg>