<svg xmlns="http://www.w3.org/2000/svg" viewBox="0 0 512 512">
  <style>
    * {
    fill: #ffffff;
    }
  </style>
      <path d="M434.8 342.8l-5.1-8.3c-9.9-16.2-21.9-31-35.7-44.1l-17-16.2c-1.6-1.5-1.9-4-0.6-5.8l23.2-33c3.3-4.8 6.4-9.8 9.2-14.9l19.8-37c3.5-6.5 3.3-14.1-0.5-20.3 -3.8-6.3-10.4-10-17.7-10l-42.8 0c0 0 0 0 0 0 -9 0-17.1 5.3-20.7 13.5l-4.5 10.3c-11.6 26.4-27.4 50.4-47 71.5v-75.5c0-11-8.9-19.9-19.9-19.9h-60.7c-10 0-18.1 8.1-18.1 18.1 0 3.8 1.2 7.5 3.4 10.5l4.2 5.9c4.2 5.8 6.4 12.6 6.4 19.8v55.2c-7.5-8.7-16.6-20.5-24.3-34.1 -11.8-20.8-20.3-45-24.3-57.6C158.7 160.1 148.9 153 137.8 153H94.4c-6.1 0-11.8 2.8-15.5 7.7 -3.7 4.9-4.9 11.1-3.2 17l8.1 28.7c5 17.6 11.8 34.8 20.3 51 2.6 4.9 8.6 6.8 13.5 4.2 4.9-2.6 6.8-8.6 4.2-13.5 -7.8-15-14.1-30.8-18.7-47.1L95.2 173h42.6c2.4 0 4.5 1.5 5.2 3.8 4.2 13.3 13.2 39.1 26 61.4 10.4 18.4 23.1 33.6 31.9 43.2 4.8 5.3 12.2 7 18.9 4.4 6.7-2.6 11-8.9 11-16v-62.6c0-11.3-3.5-22.2-10.1-31.4L218.5 173h56.8v80.2c0 5.9 2.9 11.3 7.9 14.4 4.9 3.2 11.1 3.6 16.4 1.2l4.1-1.9c1.9-0.9 3.6-2.1 5-3.6 21.7-23 39.2-49.4 51.9-78.4l4.5-10.3c0.4-1 1.4-1.6 2.4-1.6h0l42.8 0c0.1 0 0.4 0 0.6 0.3 0.2 0.3 0.1 0.5 0 0.6l-19.8 37c-2.4 4.4-5 8.7-7.9 12.8l-23.2 33c-7 10-5.7 23.4 3.2 31.8l17 16.2c12.5 11.9 23.4 25.4 32.4 40.1l5.1 8.3c0.1 0.2 0.5 0.8 0 1.6 -0.5 0.8-1.2 0.8-1.4 0.8h-37c-4.8 0-9.4-2-12.7-5.4l-37-38c-8.7-9-19.8-15.1-32-17.8 -5.5-1.2-11.1 0.1-15.5 3.6s-6.9 8.7-6.9 14.4v37.4c0 3.2-2.6 5.8-5.8 5.8 -28.7 0-57-9.6-79.8-27 -9.2-7-17.9-14.8-26-23 -3.9-3.9-10.2-4-14.1-0.1 -3.9 3.9-4 10.2-0.1 14.1 8.7 8.9 18.2 17.3 28.1 24.9 26.2 20.1 58.9 31.1 91.9 31.1 14.2 0 25.8-11.6 25.8-25.8V314.5c7.6 2 14.5 6.1 20 11.7l37 38c7.1 7.3 16.9 11.4 27 11.4h37c7.8 0 15-4.2 18.9-11C439 357.8 438.9 349.4 434.8 342.8z"/>
      <path d="M140.1 277.6l-0.1-0.2c-3.2-4.5-9.5-5.5-14-2.3 -4.5 3.2-5.5 9.5-2.3 14 0 0 0.1 0.1 0.1 0.1l8.2-5.8 -8.1 5.8c2 2.7 5 4.2 8.1 4.2 2 0 4.1-0.6 5.8-1.9C142.2 288.3 143.3 282 140.1 277.6z"/>
      <path d="M204.9 444h-81.5c-5.5 0-10 4.5-10 10s4.5 10 10 10h81.5c5.5 0 10-4.5 10-10S210.4 444 204.9 444z"/>
      <path d="M250.4 444h-0.1c-5.5 0-10 4.5-10 10s4.5 10 10 10h0.1c5.5 0 10-4.5 10-10S255.9 444 250.4 444z"/>
      <path d="M446 0H66C29.6 0 0 29.6 0 66v380c0 36.4 29.6 66 66 66h380c36.4 0 66-29.6 66-66V66C512 29.6 482.4 0 446 0zM492 446c0 25.4-20.6 46-46 46H66c-25.4 0-46-20.6-46-46V66c0-25.4 20.6-46 46-46h380c25.4 0 46 20.6 46 46V446z"/>
</svg>
